<svg xmlns="http://www.w3.org/2000/svg" width="1024" height="768" viewBox="0 0 1024 768" fill="none">
  <defs>
    <linearGradient id="bg" x1="0" y1="0" x2="1" y2="1">
      <stop offset="0%" stop-color="#0b1221"/>
      <stop offset="100%" stop-color="#111827"/>
    </linearGradient>
  </defs>
  <rect width="1024" height="768" fill="url(#bg)"/>
  <g>
    <rect x="172" y="140" rx="24" width="680" height="488" fill="#1f2937" stroke="#334155" stroke-width="4"/>
    <path d="M256 224c0-44 36-80 80-80h56l32 24h200l32-24h56c44 0 80 36 80 80v280c0 22-18 40-40 40H296c-44 0-80-36-80-80V224z" fill="#0ea5e9" fill-opacity="0.12" stroke="#0ea5e9" stroke-opacity="0.35" stroke-width="3"/>
    <text x="50%" y="52%" dominant-baseline="middle" text-anchor="middle" fill="#e5e7eb" font-size="42" font-family="Inter, Segoe UI, Roboto, Arial, sans-serif">T‑shirt JavaScript</text>
    <text x="50%" y="60%" dominant-baseline="middle" text-anchor="middle" fill="#a7b2cc" font-size="20" font-family="Inter, Segoe UI, Roboto, Arial, sans-serif">Ilustração genérica para portfolio</text>
  </g>
</svg><?xml version="1.0" standalone="no"?>
<!DOCTYPE svg PUBLIC "-//W3C//DTD SVG 20010904//EN"
 "http://www.w3.org/TR/2001/REC-SVG-20010904/DTD/svg10.dtd">
<svg version="1.0" xmlns="http://www.w3.org/2000/svg"
 width="1946.000000pt" height="1946.000000pt" viewBox="0 0 1946.000000 1946.000000"
 preserveAspectRatio="xMidYMid meet">

<g transform="translate(0.000000,1946.000000) scale(0.100000,-0.100000)"
fill="#000000" stroke="none">
<path d="M8065 17053 c-60 -13 -199 -63 -990 -353 -307 -113 -452 -167 -595
-223 -63 -25 -272 -103 -465 -175 -601 -223 -523 -184 -815 -411 -126 -99
-415 -319 -965 -736 -977 -741 -2182 -1658 -2237 -1702 -38 -30 -68 -62 -68
-71 1 -9 107 -172 236 -362 130 -190 365 -534 522 -765 157 -231 309 -454 337
-495 28 -41 134 -196 235 -345 101 -148 219 -322 263 -385 43 -63 89 -121 102
-128 22 -11 41 -6 187 54 467 190 597 250 751 348 56 35 89 51 92 43 2 -7 14
-86 27 -177 l23 -165 5 -4300 5 -4300 5004 -3 c3634 -1 5008 1 5017 9 11 9 14
777 16 4464 2 2449 6 4457 11 4461 4 4 89 -31 190 -79 238 -112 814 -358 852
-363 17 -3 35 -1 41 3 9 7 454 655 991 1443 88 129 252 370 364 535 323 472
329 481 329 502 0 25 -10 34 -210 185 -91 68 -439 333 -775 588 -1895 1440
-1895 1440 -2260 1730 -132 105 -259 203 -282 216 -81 48 -252 114 -938 359
-143 51 -433 157 -645 235 -622 229 -1002 362 -1036 362 -25 0 -57 -19 -147
-90 -345 -270 -702 -418 -1152 -478 -178 -24 -540 -24 -720 0 -480 64 -826
214 -1183 514 -41 34 -79 61 -85 61 -7 -1 -21 -3 -32 -6z m3903 -4180 l2 -943
-935 0 -935 0 0 938 c0 516 3 942 7 945 3 4 423 6 932 5 l926 -3 3 -942z
m-671 -1007 l28 -24 0 -140 c0 -157 -7 -176 -71 -188 -39 -7 -90 19 -98 50
-12 43 -6 272 7 288 34 43 93 49 134 14z m-1027 4 c28 -15 40 -65 40 -171 0
-153 -17 -178 -117 -179 l-63 0 0 180 0 180 61 0 c33 0 69 -4 79 -10z m238
-12 c-3 -20 -11 -24 -53 -28 l-50 -5 0 -45 0 -45 40 -5 c32 -4 41 -10 43 -27
3 -19 -2 -22 -40 -25 l-43 -3 0 -50 0 -50 50 -5 c42 -4 50 -8 53 -27 3 -22 1
-23 -77 -23 l-81 0 0 180 0 180 81 0 c78 0 80 -1 77 -22z m85 9 c2 -7 10 -55
17 -107 7 -52 16 -101 20 -109 8 -15 10 -6 31 147 11 81 12 82 40 82 16 0 29
-3 29 -6 0 -10 -49 -306 -55 -332 -5 -20 -11 -23 -43 -20 l-37 3 -27 155 c-34
197 -34 200 -4 200 13 0 26 -6 29 -13z m327 -11 c0 -23 -5 -25 -47 -28 l-48
-3 0 -45 c0 -45 0 -45 38 -48 31 -3 37 -7 37 -27 0 -20 -6 -24 -37 -27 l-38
-3 0 -50 0 -50 46 -3 c36 -2 48 -7 52 -22 3 -10 2 -21 -1 -24 -3 -3 -38 -6
-79 -6 l-73 0 0 180 0 180 75 0 c73 0 75 -1 75 -24z m100 -130 l0 -155 48 -3
c39 -3 47 -6 47 -23 0 -18 -8 -20 -77 -23 l-78 -3 0 181 0 180 30 0 30 0 0
-154z m500 132 c30 -32 29 -139 -2 -168 -19 -17 -51 -26 -80 -21 -5 0 -8 -33
-8 -74 l0 -75 -30 0 -30 0 0 180 0 180 65 0 c53 0 68 -4 85 -22z m220 -3 c0
-23 -3 -25 -50 -25 l-50 0 0 -50 0 -50 40 0 c36 0 40 -2 40 -25 0 -22 -4 -25
-40 -25 l-40 0 0 -55 0 -55 50 0 c47 0 50 -2 50 -25 0 -25 -1 -25 -80 -25
l-80 0 0 180 0 180 80 0 c79 0 80 0 80 -25z m187 -1 c23 -23 25 -31 21 -85 -3
-35 -11 -66 -20 -75 -14 -14 -13 -23 7 -95 l23 -79 -29 0 c-26 0 -30 5 -44 58
-30 110 -49 115 -53 15 -3 -70 -4 -73 -27 -73 l-25 0 0 180 0 180 60 0 c52 0
65 -4 87 -26z"/>
<path d="M11426 12945 c-137 -49 -196 -200 -130 -333 33 -66 67 -93 218 -167
95 -47 123 -66 130 -86 21 -63 -31 -119 -111 -119 -58 0 -91 15 -140 62 l-42
41 -65 -39 c-36 -21 -66 -43 -66 -49 0 -21 71 -95 116 -121 136 -80 335 -63
432 37 42 43 66 122 57 189 -15 112 -77 177 -234 246 -107 47 -139 69 -147
100 -24 93 94 138 168 63 16 -16 31 -29 34 -29 15 0 124 77 124 88 0 25 -86
99 -135 115 -58 20 -156 21 -209 2z"/>
<path d="M10947 12943 c-4 -3 -7 -152 -7 -330 l0 -324 -25 -24 c-18 -19 -35
-25 -66 -25 -37 0 -47 5 -81 42 l-39 42 -44 -24 c-99 -54 -103 -68 -38 -135
52 -53 112 -77 197 -79 127 -2 207 41 250 134 20 42 21 65 24 388 l3 342 -84
0 c-46 0 -87 -3 -90 -7z"/>
<path d="M11212 11703 l3 -128 25 0 25 0 0 125 0 125 -28 3 -28 3 3 -128z"/>
<path d="M10190 11700 c0 -119 2 -130 18 -130 35 0 42 21 42 126 0 119 -4 134
-36 134 l-24 0 0 -130z"/>
<path d="M11430 11775 c0 -46 3 -55 18 -55 27 0 42 20 42 55 0 35 -15 55 -42
55 -15 0 -18 -9 -18 -55z"/>
<path d="M11834 11817 c-3 -8 -4 -32 -2 -53 3 -34 6 -39 28 -39 23 0 25 3 25
50 0 44 -3 50 -23 53 -13 2 -24 -3 -28 -11z"/>
</g>
</svg>
