<svg xmlns="http://www.w3.org/2000/svg" fill="none" viewBox="0 0 283 64"><path fill="#000" d="M141 16c-11 0-19 7-19 18s9 18 20 18c7 0 13-3 16-7l-7-4c-2 3-5 4-9 4-5 0-9-3-10-7h28v-3c0-11-8-19-19-19zm-9 15c1-4 4-7 9-7s8 3 9 7h-18zm117-15c-11 0-19 7-19 18s9 18 20 18c7 0 13-3 16-7l-7-4c-2 3-5 4-9 4-5 0-9-3-10-7h28v-3c0-11-8-19-19-19zm-9 15c1-4 4-7 9-7s8 3 9 7h-18zm-39 3c0-12-8-19-19-19s-19 7-19 19 8 19 19 19 19-7 19-19zm-10 0c0 8-4 12-9 12s-9-4-9-12 4-12 9-12 9 4 9 12zm-47-19c-11 0-19 7-19 19s8 19 19 19 19-7 19-19-8-19-19-19zm0 31c-7 0-12-6-12-12s5-12 12-12 12 6 12 12-5 12-12 12z"/></svg>
